name C:/MyDriveSym/Projects/mobilecap/Data\Session20210823_0002\mocap\ForceDataProcessed\walking2_forces.mot
datacolumns 19
datarows 27
range 0.68950000 0.70250000
endheader 
time	R_ground_force_vx	R_ground_force_vy	R_ground_force_vz	R_ground_force_px	R_ground_force_py	R_ground_force_pz	R_ground_torque_x	R_ground_torque_y	R_ground_torque_z	L_ground_force_vx	L_ground_force_vy	L_ground_force_vz	L_ground_force_px	L_ground_force_py	L_ground_force_pz	L_ground_torque_x	L_ground_torque_y	L_ground_torque_z	
          0.68950000	         12.43381100	         37.68263900	          1.92768300	          0.52134200	          0.00600000	         -0.11968300	          0.00000000	         -0.14658600	          0.00000000	        -74.61384100	        614.07644800	         29.79452600	          0.93338500	          0.00600000	         -0.24864800	          0.00000000	          0.85575300	          0.00000000	
          0.69000000	         12.19821800	         36.75627200	          1.92069600	          0.52237200	          0.00600000	         -0.11957600	          0.00000000	         -0.14537800	          0.00000000	        -74.60710200	        614.99403700	         29.88832100	          0.93352400	          0.00600000	         -0.24867100	          0.00000000	          0.85592500	          0.00000000	
          0.69050000	         11.96477400	         35.84024300	          1.91356200	          0.52343700	          0.00600000	         -0.11946400	          0.00000000	         -0.14423000	          0.00000000	        -74.59807900	        615.90163300	         29.98106900	          0.93366200	          0.00600000	         -0.24869300	          0.00000000	          0.85611400	          0.00000000	
          0.69100000	         11.73347700	         34.93451400	          1.90628300	          0.52454100	          0.00600000	         -0.11934800	          0.00000000	         -0.14314500	          0.00000000	        -74.58678200	        616.79919900	         30.07276600	          0.93380000	          0.00600000	         -0.24871600	          0.00000000	          0.85632300	          0.00000000	
          0.69150000	         11.50432700	         34.03904500	          1.89886500	          0.52568500	          0.00600000	         -0.11922600	          0.00000000	         -0.14212500	          0.00000000	        -74.57322100	        617.68669700	         30.16340800	          0.93393800	          0.00600000	         -0.24873800	          0.00000000	          0.85655100	          0.00000000	
          0.69200000	         11.27731900	         33.15379500	          1.89131000	          0.52687200	          0.00600000	         -0.11909900	          0.00000000	         -0.14117200	          0.00000000	        -74.55740600	        618.56409000	         30.25299200	          0.93407500	          0.00600000	         -0.24876100	          0.00000000	          0.85679800	          0.00000000	
          0.69250000	         11.05245400	         32.27872300	          1.88362200	          0.52810300	          0.00600000	         -0.11896700	          0.00000000	         -0.14029000	          0.00000000	        -74.53934800	        619.43134300	         30.34151500	          0.93421200	          0.00600000	         -0.24878300	          0.00000000	          0.85706400	          0.00000000	
          0.69300000	         10.82972700	         31.41378600	          1.87580500	          0.52938300	          0.00600000	         -0.11882800	          0.00000000	         -0.13948100	          0.00000000	        -74.51905700	        620.28842200	         30.42897400	          0.93434900	          0.00600000	         -0.24880600	          0.00000000	          0.85735100	          0.00000000	
          0.69350000	         10.60913700	         30.55894100	          1.86786100	          0.53071300	          0.00600000	         -0.11868300	          0.00000000	         -0.13874800	          0.00000000	        -74.49654400	        621.13529100	         30.51536600	          0.93448600	          0.00600000	         -0.24882800	          0.00000000	          0.85765800	          0.00000000	
          0.69400000	         10.39067900	         29.71414400	          1.85979500	          0.53209800	          0.00600000	         -0.11853100	          0.00000000	         -0.13809500	          0.00000000	        -74.47182000	        621.97191900	         30.60068800	          0.93462300	          0.00600000	         -0.24885000	          0.00000000	          0.85798500	          0.00000000	
          0.69450000	         10.17435100	         28.87935100	          1.85161000	          0.53354000	          0.00600000	         -0.11837200	          0.00000000	         -0.13752600	          0.00000000	        -74.44489700	        622.79827200	         30.68493800	          0.93475900	          0.00600000	         -0.24887200	          0.00000000	          0.85833300	          0.00000000	
          0.69500000	          9.96014800	         28.05451600	          1.84330900	          0.53504300	          0.00600000	         -0.11820500	          0.00000000	         -0.13704400	          0.00000000	        -74.41578400	        623.61432000	         30.76811200	          0.93489600	          0.00600000	         -0.24889500	          0.00000000	          0.85870200	          0.00000000	
          0.69550000	          9.74806700	         27.23959300	          1.83489600	          0.53661200	          0.00600000	         -0.11803000	          0.00000000	         -0.13665400	          0.00000000	        -74.38449400	        624.42003300	         30.85020800	          0.93503200	          0.00600000	         -0.24891700	          0.00000000	          0.85909300	          0.00000000	
          0.69600000	          9.53810400	         26.43453400	          1.82637300	          0.53825000	          0.00600000	         -0.11784700	          0.00000000	         -0.13636100	          0.00000000	        -74.35103800	        625.21538000	         30.93122400	          0.93516800	          0.00600000	         -0.24893900	          0.00000000	          0.85950500	          0.00000000	
          0.69650000	          9.33025300	         25.63929200	          1.81774500	          0.53996400	          0.00600000	         -0.11765300	          0.00000000	         -0.13617100	          0.00000000	        -74.31542800	        626.00033400	         31.01115700	          0.93530400	          0.00600000	         -0.24896100	          0.00000000	          0.85993900	          0.00000000	
          0.69700000	          9.12451000	         24.85381800	          1.80901400	          0.54175700	          0.00600000	         -0.11745000	          0.00000000	         -0.13608900	          0.00000000	        -74.27767600	        626.77486700	         31.09000500	          0.93543900	          0.00600000	         -0.24898300	          0.00000000	          0.86039500	          0.00000000	
          0.69750000	          8.92087000	         24.07806300	          1.80018300	          0.54363700	          0.00600000	         -0.11723600	          0.00000000	         -0.13612100	          0.00000000	        -74.23779300	        627.53895200	         31.16776700	          0.93557500	          0.00600000	         -0.24900500	          0.00000000	          0.86087400	          0.00000000	
          0.69800000	          8.71932800	         23.31197800	          1.79125600	          0.54560900	          0.00600000	         -0.11701000	          0.00000000	         -0.13627500	          0.00000000	        -74.19579100	        628.29256400	         31.24443900	          0.93571000	          0.00600000	         -0.24902600	          0.00000000	          0.86137500	          0.00000000	
          0.69850000	          8.51987800	         22.55551200	          1.78223600	          0.54768200	          0.00600000	         -0.11677200	          0.00000000	         -0.13655800	          0.00000000	        -74.15168300	        629.03567800	         31.32002000	          0.93584500	          0.00600000	         -0.24904800	          0.00000000	          0.86190000	          0.00000000	
          0.69900000	          8.32251500	         21.80861400	          1.77312500	          0.54986100	          0.00600000	         -0.11652000	          0.00000000	         -0.13697900	          0.00000000	        -74.10548100	        629.76827100	         31.39450900	          0.93598000	          0.00600000	         -0.24907000	          0.00000000	          0.86244700	          0.00000000	
          0.69950000	          8.12723200	         21.07123200	          1.76392700	          0.55215800	          0.00600000	         -0.11625300	          0.00000000	         -0.13754800	          0.00000000	        -74.05719700	        630.49031900	         31.46790400	          0.93611500	          0.00600000	         -0.24909200	          0.00000000	          0.86301900	          0.00000000	
          0.70000000	          7.93402400	         20.34331400	          1.75464500	          0.55340400	          0.00600000	         -0.11626300	          0.00000000	         -0.13827500	          0.00000000	        -74.00684400	        631.20180100	         31.54020200	          0.93625000	          0.00600000	         -0.24911300	          0.00000000	          0.86361300	          0.00000000	
          0.70050000	          0.00000000	          0.00000000	          0.00000000	          0.55465000	          0.00000000	         -0.11627300	          0.00000000	          0.00000000	          0.00000000	        -73.95443500	        631.90269600	         31.61140400	          0.93638500	          0.00600000	         -0.24913500	          0.00000000	          0.86423200	          0.00000000	
          0.70100000	          0.00000000	          0.00000000	          0.00000000	          0.55589700	          0.00000000	         -0.11628300	          0.00000000	          0.00000000	          0.00000000	        -73.89998100	        632.59298500	         31.68150600	          0.93651900	          0.00600000	         -0.24915600	          0.00000000	          0.86487600	          0.00000000	
          0.70150000	          0.00000000	          0.00000000	          0.00000000	          0.55714300	          0.00000000	         -0.11629300	          0.00000000	          0.00000000	          0.00000000	        -73.84349700	        633.27264800	         31.75050900	          0.93665400	          0.00600000	         -0.24917800	          0.00000000	          0.86554300	          0.00000000	
          0.70200000	          0.00000000	          0.00000000	          0.00000000	          0.55838900	          0.00000000	         -0.11630300	          0.00000000	          0.00000000	          0.00000000	        -73.78499400	        633.94166700	         31.81841100	          0.93678800	          0.00600000	         -0.24919900	          0.00000000	          0.86623600	          0.00000000	
          0.70250000	          0.00000000	          0.00000000	          0.00000000	          0.55963500	          0.00000000	         -0.11631300	          0.00000000	          0.00000000	          0.00000000	        -73.72448700	        634.60002700	         31.88521100	          0.93692200	          0.00600000	         -0.24922100	          0.00000000	          0.86695300	          0.00000000	
